<svg width="37" height="24" viewBox="0 0 37 24" fill="none" xmlns="http://www.w3.org/2000/svg">
<path d="M12.1301 0.0914797C12.1433 0.0611326 12.1499 0.0307857 12.1632 0.000438527H7.83483C7.30816 0.00163402 6.78885 0.0947821 6.31664 0.272749C5.84444 0.450717 5.43187 0.708782 5.11053 1.02718L0.642959 5.50845C0.315529 5.83498 0.0950884 6.21648 0 6.62118H9.71068L12.1301 0.0914797ZM9.71731 7.63275H0.0198852C0.128662 8.03513 0.362842 8.4116 0.702615 8.73031L15.6895 22.8923L15.6166 22.7052L9.71731 7.63275ZM21.3834 22.7001C20.7318 23.6424 36.43 8.50321 36.2974 8.73031C36.6365 8.41062 36.8726 8.0347 36.9867 7.63275H27.2827L21.3834 22.7001ZM31.8895 1.02718C31.5681 0.708782 31.1556 0.450717 30.6834 0.272749C30.2112 0.0947821 29.6918 0.00163402 29.1652 0.000438527H24.8302C24.8485 0.0316118 24.864 0.0637223 24.8766 0.0965377L27.2893 6.62118H37C36.9049 6.21648 36.6845 5.83498 36.357 5.50845L31.8895 1.02718ZM11.1027 7.63275L16.8893 22.4118L17.3599 23.6055C17.5077 23.9879 18.0672 23.9934 18.5 24C18.9328 23.9934 19.4929 23.9879 19.6401 23.6055L20.1107 22.4118L25.8973 7.63275H11.1027ZM25.904 6.62118C25.7674 6.24538 23.6722 0.568942 23.5973 0.369662C23.5587 0.263491 23.4756 0.169892 23.3607 0.103205C23.2457 0.0365175 23.1053 0.000418938 22.9609 0.000438527H14.0391C13.3696 -0.0197929 13.3205 0.665042 13.1641 1.01201L11.096 6.62118H25.904Z" fill="white" fill-opacity="0.9"/>
</svg>
