<svg width="52" height="52" viewBox="0 0 52 52" fill="none" xmlns="http://www.w3.org/2000/svg">
<rect width="52" height="52" rx="26" fill="white" fill-opacity="0.9"/>
<g clip-path="url(#clip0_3828_39)">
<path fill-rule="evenodd" clip-rule="evenodd" d="M32.6997 19.2613C30.9216 17.4817 28.5577 16.5008 26.0394 16.5C20.85 16.5 16.6265 20.7228 16.6241 25.9145C16.6233 27.5738 17.0571 29.1936 17.8813 30.6217L16.5449 35.5L21.5356 34.1906C22.9107 34.9411 24.4592 35.3361 26.0346 35.3369H26.0386C31.2272 35.3369 35.4515 31.1134 35.4539 25.9216C35.4555 23.4065 34.477 21.0402 32.6997 19.2613ZM26.0394 33.7465H26.0362C24.6318 33.7465 23.2551 33.3688 22.0533 32.6555L21.7675 32.4861L18.8059 33.2628L19.5968 30.3747L19.4108 30.0787C18.627 28.8326 18.2138 27.3925 18.2145 25.9145C18.2161 21.5999 21.7272 18.0897 26.0433 18.0897C28.1333 18.0897 30.0983 18.9051 31.5755 20.3839C33.0528 21.8635 33.8658 23.8293 33.865 25.92C33.8626 30.2362 30.3524 33.7465 26.0394 33.7465ZM30.3318 27.8858C30.0967 27.7678 28.94 27.1986 28.7239 27.1202C28.5086 27.0418 28.3518 27.0023 28.1943 27.2374C28.0368 27.4725 27.5871 28.0029 27.4493 28.1605C27.3124 28.3172 27.1746 28.337 26.9395 28.219C26.7044 28.1011 25.946 27.8533 25.0474 27.0513C24.3484 26.4275 23.8758 25.6572 23.7388 25.4213C23.6018 25.1854 23.7245 25.0587 23.8417 24.9415C23.9478 24.8363 24.0768 24.6668 24.1948 24.5291C24.3135 24.3929 24.3523 24.2948 24.4315 24.1372C24.5099 23.9805 24.4711 23.8427 24.4117 23.7248C24.3523 23.6076 23.8821 22.4494 23.6865 21.9783C23.4958 21.5192 23.3018 21.5817 23.1569 21.5746C23.02 21.5675 22.8632 21.5667 22.7057 21.5667C22.5489 21.5667 22.294 21.6252 22.0787 21.8612C21.8633 22.0971 21.2553 22.6663 21.2553 23.8237C21.2553 24.9819 22.0985 26.1005 22.2156 26.2573C22.3328 26.414 23.8742 28.7906 26.2341 29.8095C26.7954 30.0518 27.234 30.1966 27.5752 30.3051C28.1389 30.484 28.6519 30.4587 29.0572 30.3985C29.5093 30.3312 30.449 29.8293 30.6453 29.2799C30.8416 28.7305 30.8416 28.2586 30.7823 28.1612C30.7237 28.0623 30.5669 28.0037 30.3318 27.8858Z" fill="#171717"/>
</g>
<defs>
<clipPath id="clip0_3828_39">
<rect width="19" height="19" fill="white" transform="translate(16.5 16.5)"/>
</clipPath>
</defs>
</svg>
